<?xml version="1.0" encoding="iso-8859-1"?>
<!-- Generator: Adobe Illustrator 19.0.0, SVG Export Plug-In . SVG Version: 6.00 Build 0)  -->
<svg version="1.1" id="Layer_1" xmlns="http://www.w3.org/2000/svg" xmlns:xlink="http://www.w3.org/1999/xlink" x="0px" y="0px"
	 viewBox="0 0 512 512" style="enable-background:new 0 0 512 512;" xml:space="preserve">
<circle style="fill:#CFF09E;" cx="288.356" cy="205.186" r="105.06"/>
<g>
	<path style="fill:#507C5C;" d="M288.36,323.541c-65.264,0-118.359-53.095-118.359-118.359S223.097,86.823,288.36,86.823
		s118.359,53.095,118.359,118.359S353.624,323.541,288.36,323.541z M288.36,113.421c-50.598,0-91.761,41.164-91.761,91.761
		s41.164,91.761,91.761,91.761s91.761-41.164,91.761-91.761S338.958,113.421,288.36,113.421z"/>
	<path style="fill:#507C5C;" d="M413.004,434.092H37.734C16.928,434.092,0,417.165,0,396.358V217.276
		c0-20.806,16.928-37.733,37.734-37.733h36.83c7.345,0,13.299,5.954,13.299,13.299c0,7.345-5.954,13.299-13.299,13.299h-36.83
		c-6.14,0-11.136,4.995-11.136,11.135v179.083c0,6.14,4.995,11.136,11.136,11.136h375.27c6.14,0,11.135-4.995,11.135-11.136v-22.665
		c0-7.345,5.954-13.299,13.299-13.299c7.345,0,13.299,5.954,13.299,13.299v22.664C450.737,417.165,433.81,434.092,413.004,434.092z"
		/>
	<path style="fill:#507C5C;" d="M474.267,332.456H98.996c-20.806,0-37.733-16.927-37.733-37.733V115.642
		c0-20.806,16.927-37.734,37.733-37.734h375.272c20.806,0,37.732,16.928,37.732,37.734v27.981c0,7.345-5.954,13.299-13.299,13.299
		c-7.345,0-13.299-5.954-13.299-13.299v-27.981c0-6.14-4.995-11.136-11.135-11.136H98.996c-6.14,0-11.135,4.995-11.135,11.136
		v179.083c0,6.14,4.995,11.135,11.135,11.135h375.272c6.14,0,11.135-4.995,11.135-11.135V215.44c0-7.345,5.954-13.299,13.299-13.299
		c7.345,0,13.299,5.954,13.299,13.299v79.284C512,315.53,495.073,332.456,474.267,332.456z"/>
</g>
<path style="fill:#CFF09E;" d="M124.746,319.158c4.53,53.847,49.639,96.145,104.657,96.145s100.128-42.298,104.657-96.145H124.746z"
	/>
<g>
	<path style="fill:#507C5C;" d="M229.403,428.602c-29.861,0-58.375-11.156-80.288-31.413
		c-21.781-20.134-35.142-47.451-37.619-76.916c-0.311-3.708,0.944-7.375,3.463-10.115s6.068-4.298,9.789-4.298H334.06
		c3.721,0,7.272,1.559,9.789,4.298s3.774,6.407,3.463,10.115c-2.479,29.466-15.839,56.782-37.621,76.916
		C287.777,417.446,259.264,428.602,229.403,428.602z M140.396,332.456c10.041,39.983,46.659,69.547,89.006,69.547
		s78.965-29.564,89.006-69.547L140.396,332.456L140.396,332.456z"/>
	<path style="fill:#507C5C;" d="M282.928,255.721c-17.379-0.431-30.449-9.767-30.449-17.81c0-4.022,3.591-10.054,8.043-10.054
		c5.458,0,9.767,9.336,22.406,10.772v-28.582c-13.07-4.883-27.863-10.485-27.863-28.869c0-18.241,13.501-26.14,27.863-28.007v-4.022
		c0-1.867,2.154-3.591,4.883-3.591c2.442,0,4.883,1.724,4.883,3.591v3.734c9.336,0.287,24.56,3.016,24.56,11.346
		c0,3.303-2.298,9.91-7.612,9.91c-4.022,0-7.325-4.596-16.948-5.314v25.278c12.783,4.74,27.145,11.203,27.145,30.736
		c0,17.666-11.059,27.863-27.145,30.449v4.452c0,1.867-2.442,3.591-4.883,3.591c-2.729,0-4.883-1.724-4.883-3.591V255.721
		L282.928,255.721z M284.077,190.945v-21.688c-7.181,1.149-11.49,4.596-11.49,10.054C272.587,185.63,277.47,188.359,284.077,190.945
		z M291.546,213.494v24.991c6.32-1.293,10.772-5.027,10.772-11.777C302.318,219.67,297.721,216.223,291.546,213.494z"/>
</g>
<g>
</g>
<g>
</g>
<g>
</g>
<g>
</g>
<g>
</g>
<g>
</g>
<g>
</g>
<g>
</g>
<g>
</g>
<g>
</g>
<g>
</g>
<g>
</g>
<g>
</g>
<g>
</g>
<g>
</g>
</svg>
