<svg height="512" viewBox="0 0 64 64" width="512" xmlns="http://www.w3.org/2000/svg"><g id="Layer_7" data-name="Layer 7"><path d="m2 2h46v60h-46z" fill="#c7e2fb"/><path d="m2 50.68a33.57 33.57 0 0 0 4.5.32c20.71 0 37.5-19.48 37.5-43.5a49.85 49.85 0 0 0 -.31-5.5h-41.69z" fill="#ebf7fe"/><g fill="#a0a8b2"><path d="m17 30h26v2h-26z"/><path d="m17 34h26v2h-26z"/><path d="m17 40h26v2h-26z"/><path d="m17 44h26v2h-26z"/><path d="m17 50h26v2h-26z"/><path d="m17 54h26v2h-26z"/></g><path d="m8 6h34v20h-34z" fill="#f7d881"/><circle cx="49" cy="49" fill="#f7d881" r="13"/><path d="m36 49a13 13 0 0 0 5.46 10.57c9.45-1.8 16.54-9.2 16.54-18.07a18.46 18.46 0 0 0 -.12-2 13 13 0 0 0 -21.88 9.5z" fill="#fae8b3"/><path d="m8 30h6v6h-6z" fill="#f7d881"/><path d="m8 40h6v6h-6z" fill="#f7d881"/><path d="m8 50h6v6h-6z" fill="#f7d881"/><path d="m11 11h3v12h2v-12h3v-2h-8z" fill="#fff"/><path d="m25 9a4 4 0 0 0 -4 4v10h2v-4h4v4h2v-10a4 4 0 0 0 -4-4zm-2 8v-4a2 2 0 0 1 4 0v4z" fill="#fff"/><path d="m39 9h-2a8.57 8.57 0 0 1 -2 5.54 7.85 7.85 0 0 1 -2-5.23v-.31h-2v.31a9.82 9.82 0 0 0 2.63 6.69 10.54 10.54 0 0 0 -2.63 7h2a8.57 8.57 0 0 1 2-5.54 7.85 7.85 0 0 1 2 5.23v.31h2v-.31a9.82 9.82 0 0 0 -2.63-6.69 10.54 10.54 0 0 0 2.63-7z" fill="#fff"/><path d="m6.34 41h11.31v2h-11.31z" fill="#a0a8b2" transform="matrix(.707 -.707 .707 .707 -26.18 20.79)"/><circle cx="54" cy="52" fill="#a0a8b2" r="2"/><circle cx="44" cy="46" fill="#a0a8b2" r="2"/><path d="m39.15 48h19.7v2h-19.7z" fill="#a0a8b2" transform="matrix(.406 -.914 .914 .406 -15.68 73.88)"/></g></svg>